<?xml version="1.0" encoding="UTF-8" standalone="yes"?><svg xmlns="http://www.w3.org/2000/svg" xmlns:xlink="http://www.w3.org/1999/xlink" height="169px" style="width:491px;height:169px;" version="1.1" viewBox="0 0 491 169" width="491px"><defs><filter height="300%" id="f4xtsvo" width="300%" x="-1" y="-1"><feGaussianBlur result="blurOut" stdDeviation="2.0"/><feColorMatrix in="blurOut" result="blurOut2" type="matrix" values="0 0 0 0 0 0 0 0 0 0 0 0 0 0 0 0 0 0 .4 0"/><feOffset dx="4.0" dy="4.0" in="blurOut2" result="blurOut3"/><feBlend in="SourceGraphic" in2="blurOut3" mode="normal"/></filter></defs><g><rect fill="#FFFFFF" filter="url(#f4xtsvo)" height="59.2656" style="stroke: #000000; stroke-width: 2.0;" width="469" x="13" y="55.2969"/><line style="stroke: #A80036; stroke-width: 1.0; stroke-dasharray: 5.0,5.0;" x1="85" x2="85" y1="38.2969" y2="131.5625"/><rect fill="#FEFECE" filter="url(#f4xtsvo)" height="30.2969" style="stroke: #A80036; stroke-width: 1.5;" width="121" x="23" y="3"/><text fill="#000000" font-family="sans-serif" font-size="14" lengthAdjust="spacingAndGlyphs" textLength="107" x="30" y="22.9951">StructureFinder</text><rect fill="#FEFECE" filter="url(#f4xtsvo)" height="30.2969" style="stroke: #A80036; stroke-width: 1.5;" width="121" x="23" y="130.5625"/><text fill="#000000" font-family="sans-serif" font-size="14" lengthAdjust="spacingAndGlyphs" textLength="107" x="30" y="150.5576">StructureFinder</text><rect fill="none" height="59.2656" style="stroke: #000000; stroke-width: 2.0;" width="469" x="13" y="55.2969"/><polygon fill="#EEEEEE" points="13,55.2969,477,55.2969,477,62.2969,467,72.2969,13,72.2969,13,55.2969" style="stroke: #000000; stroke-width: 2.0;"/><text fill="#000000" font-family="sans-serif" font-size="13" font-weight="bold" lengthAdjust="spacingAndGlyphs" textLength="419" x="28" y="68.3638">User has structure id and wants its stack representation</text><line style="stroke: #A80036; stroke-width: 1.0;" x1="85.5" x2="127.5" y1="93.5625" y2="93.5625"/><line style="stroke: #A80036; stroke-width: 1.0;" x1="127.5" x2="127.5" y1="93.5625" y2="106.5625"/><line style="stroke: #A80036; stroke-width: 1.0;" x1="86.5" x2="127.5" y1="106.5625" y2="106.5625"/><polygon fill="#A80036" points="96.5,102.5625,86.5,106.5625,96.5,110.5625,92.5,106.5625" style="stroke: #A80036; stroke-width: 1.0;"/><text fill="#000000" font-family="sans-serif" font-size="13" lengthAdjust="spacingAndGlyphs" textLength="284" x="92.5" y="88.4966">ClassStack stack = find(humanIdentificator);</text></g></svg>