<?xml version="1.0" encoding="UTF-8" standalone="yes"?><svg xmlns="http://www.w3.org/2000/svg" xmlns:xlink="http://www.w3.org/1999/xlink" height="271px" style="width:782px;height:271px;" version="1.1" viewBox="0 0 782 271" width="782px"><defs><filter height="300%" id="fxfdyf" width="300%" x="-1" y="-1"><feGaussianBlur result="blurOut" stdDeviation="2.0"/><feColorMatrix in="blurOut" result="blurOut2" type="matrix" values="0 0 0 0 0 0 0 0 0 0 0 0 0 0 0 0 0 0 .4 0"/><feOffset dx="4.0" dy="4.0" in="blurOut2" result="blurOut3"/><feBlend in="SourceGraphic" in2="blurOut3" mode="normal"/></filter></defs><g><rect fill="#FFFFFF" filter="url(#fxfdyf)" height="160.6641" style="stroke: #000000; stroke-width: 2.0;" width="760" x="13" y="55.2969"/><line style="stroke: #A80036; stroke-width: 1.0; stroke-dasharray: 5.0,5.0;" x1="65" x2="65" y1="38.2969" y2="232.9609"/><line style="stroke: #A80036; stroke-width: 1.0; stroke-dasharray: 5.0,5.0;" x1="344" x2="344" y1="38.2969" y2="232.9609"/><line style="stroke: #A80036; stroke-width: 1.0; stroke-dasharray: 5.0,5.0;" x1="486" x2="486" y1="38.2969" y2="232.9609"/><line style="stroke: #A80036; stroke-width: 1.0; stroke-dasharray: 5.0,5.0;" x1="701.5" x2="701.5" y1="38.2969" y2="232.9609"/><rect fill="#FEFECE" filter="url(#fxfdyf)" height="30.2969" style="stroke: #A80036; stroke-width: 1.5;" width="81" x="23" y="3"/><text fill="#000000" font-family="sans-serif" font-size="14" lengthAdjust="spacingAndGlyphs" textLength="67" x="30" y="22.9951">Controller</text><rect fill="#FEFECE" filter="url(#fxfdyf)" height="30.2969" style="stroke: #A80036; stroke-width: 1.5;" width="81" x="23" y="231.9609"/><text fill="#000000" font-family="sans-serif" font-size="14" lengthAdjust="spacingAndGlyphs" textLength="67" x="30" y="251.9561">Controller</text><rect fill="#FEFECE" filter="url(#fxfdyf)" height="30.2969" style="stroke: #A80036; stroke-width: 1.5;" width="139" x="273" y="3"/><text fill="#000000" font-family="sans-serif" font-size="14" lengthAdjust="spacingAndGlyphs" textLength="125" x="280" y="22.9951">StructureCollector</text><rect fill="#FEFECE" filter="url(#fxfdyf)" height="30.2969" style="stroke: #A80036; stroke-width: 1.5;" width="139" x="273" y="231.9609"/><text fill="#000000" font-family="sans-serif" font-size="14" lengthAdjust="spacingAndGlyphs" textLength="125" x="280" y="251.9561">StructureCollector</text><rect fill="#FEFECE" filter="url(#fxfdyf)" height="30.2969" style="stroke: #A80036; stroke-width: 1.5;" width="116" x="426" y="3"/><text fill="#000000" font-family="sans-serif" font-size="14" lengthAdjust="spacingAndGlyphs" textLength="102" x="433" y="22.9951">StructureSaver</text><rect fill="#FEFECE" filter="url(#fxfdyf)" height="30.2969" style="stroke: #A80036; stroke-width: 1.5;" width="116" x="426" y="231.9609"/><text fill="#000000" font-family="sans-serif" font-size="14" lengthAdjust="spacingAndGlyphs" textLength="102" x="433" y="251.9561">StructureSaver</text><rect fill="#FEFECE" filter="url(#fxfdyf)" height="30.2969" style="stroke: #A80036; stroke-width: 1.5;" width="89" x="655.5" y="3"/><text fill="#000000" font-family="sans-serif" font-size="14" lengthAdjust="spacingAndGlyphs" textLength="75" x="662.5" y="22.9951">ClassStack</text><rect fill="#FEFECE" filter="url(#fxfdyf)" height="30.2969" style="stroke: #A80036; stroke-width: 1.5;" width="89" x="655.5" y="231.9609"/><text fill="#000000" font-family="sans-serif" font-size="14" lengthAdjust="spacingAndGlyphs" textLength="75" x="662.5" y="251.9561">ClassStack</text><rect fill="none" height="160.6641" style="stroke: #000000; stroke-width: 2.0;" width="760" x="13" y="55.2969"/><polygon fill="#EEEEEE" points="13,55.2969,768,55.2969,768,62.2969,758,72.2969,13,72.2969,13,55.2969" style="stroke: #000000; stroke-width: 2.0;"/><text fill="#000000" font-family="sans-serif" font-size="13" font-weight="bold" lengthAdjust="spacingAndGlyphs" textLength="571" x="28" y="68.3638">User wants to collect the structure of dependencies for a class, starting with</text><text fill="#000000" font-family="sans-serif" font-size="13" font-weight="bold" lengthAdjust="spacingAndGlyphs" textLength="134" x="604" y="68.3638">targetClazz: Class</text><polygon fill="#A80036" points="332.5,89.4297,342.5,93.4297,332.5,97.4297,336.5,93.4297" style="stroke: #A80036; stroke-width: 1.0;"/><line style="stroke: #A80036; stroke-width: 1.0;" x1="65.5" x2="338.5" y1="93.4297" y2="93.4297"/><text fill="#000000" font-family="sans-serif" font-size="13" lengthAdjust="spacingAndGlyphs" textLength="255" x="72.5" y="88.4966">ClassStack stack = collect(targetClazz);</text><polygon fill="#A80036" points="474,118.5625,484,122.5625,474,126.5625,478,122.5625" style="stroke: #A80036; stroke-width: 1.0;"/><line style="stroke: #A80036; stroke-width: 1.0;" x1="65.5" x2="480" y1="122.5625" y2="122.5625"/><text fill="#000000" font-family="sans-serif" font-size="13" lengthAdjust="spacingAndGlyphs" textLength="266" x="72.5" y="117.6294">saveStructure(stack, humanIdentificator);</text><polygon fill="#A80036" points="690,147.6953,700,151.6953,690,155.6953,694,151.6953" style="stroke: #A80036; stroke-width: 1.0;"/><line style="stroke: #A80036; stroke-width: 1.0;" x1="486" x2="696" y1="151.6953" y2="151.6953"/><text fill="#000000" font-family="sans-serif" font-size="13" lengthAdjust="spacingAndGlyphs" textLength="158" x="493" y="146.7622">stack.validateStructure()</text><line style="stroke: #A80036; stroke-width: 1.0;" x1="486" x2="528" y1="180.9609" y2="180.9609"/><line style="stroke: #A80036; stroke-width: 1.0;" x1="528" x2="528" y1="180.9609" y2="193.9609"/><line style="stroke: #A80036; stroke-width: 1.0;" x1="487" x2="528" y1="193.9609" y2="193.9609"/><polygon fill="#A80036" points="497,189.9609,487,193.9609,497,197.9609,493,193.9609" style="stroke: #A80036; stroke-width: 1.0;"/><text fill="#000000" font-family="sans-serif" font-size="13" lengthAdjust="spacingAndGlyphs" textLength="202" x="493" y="175.895">save(stack, humanIdentificator)</text><polygon fill="#A80036" points="76.5,203.9609,66.5,207.9609,76.5,211.9609,72.5,207.9609" style="stroke: #A80036; stroke-width: 1.0;"/><line style="stroke: #A80036; stroke-width: 1.0; stroke-dasharray: 2.0,2.0;" x1="70.5" x2="485" y1="207.9609" y2="207.9609"/></g></svg>