<?xml version="1.0" encoding="UTF-8" standalone="yes"?><svg xmlns="http://www.w3.org/2000/svg" xmlns:xlink="http://www.w3.org/1999/xlink" height="819px" style="width:653px;height:819px;" version="1.1" viewBox="0 0 653 819" width="653px"><defs><filter height="300%" id="fo81ful" width="300%" x="-1" y="-1"><feGaussianBlur result="blurOut" stdDeviation="2.0"/><feColorMatrix in="blurOut" result="blurOut2" type="matrix" values="0 0 0 0 0 0 0 0 0 0 0 0 0 0 0 0 0 0 .4 0"/><feOffset dx="4.0" dy="4.0" in="blurOut2" result="blurOut3"/><feBlend in="SourceGraphic" in2="blurOut3" mode="normal"/></filter></defs><g><text fill="#000000" font-family="sans-serif" font-size="18" lengthAdjust="spacingAndGlyphs" textLength="166" x="248" y="16.708">Initial relationships</text><rect fill="#FEFECE" filter="url(#fo81ful)" height="50" rx="12.5" ry="12.5" style="stroke: #A80036; stroke-width: 1.5;" width="50" x="354" y="139.9531"/><line style="stroke: #A80036; stroke-width: 1.5;" x1="354" x2="404" y1="166.25" y2="166.25"/><text fill="#000000" font-family="sans-serif" font-size="14" lengthAdjust="spacingAndGlyphs" textLength="9" x="374.5" y="157.9482">A</text><rect fill="#FEFECE" filter="url(#fo81ful)" height="50" rx="12.5" ry="12.5" style="stroke: #A80036; stroke-width: 1.5;" width="50" x="474" y="139.9531"/><line style="stroke: #A80036; stroke-width: 1.5;" x1="474" x2="524" y1="166.25" y2="166.25"/><text fill="#000000" font-family="sans-serif" font-size="14" lengthAdjust="spacingAndGlyphs" textLength="10" x="494" y="157.9482">B</text><rect fill="#FEFECE" filter="url(#fo81ful)" height="50" rx="12.5" ry="12.5" style="stroke: #A80036; stroke-width: 1.5;" width="50" x="511" y="28.9531"/><line style="stroke: #A80036; stroke-width: 1.5;" x1="511" x2="561" y1="55.25" y2="55.25"/><text fill="#000000" font-family="sans-serif" font-size="14" lengthAdjust="spacingAndGlyphs" textLength="10" x="531" y="46.9482">C</text><rect fill="#FEFECE" filter="url(#fo81ful)" height="50" rx="12.5" ry="12.5" style="stroke: #A80036; stroke-width: 1.5;" width="50" x="261" y="139.9531"/><line style="stroke: #A80036; stroke-width: 1.5;" x1="261" x2="311" y1="166.25" y2="166.25"/><text fill="#000000" font-family="sans-serif" font-size="14" lengthAdjust="spacingAndGlyphs" textLength="11" x="280.5" y="157.9482">D</text><rect fill="#FEFECE" filter="url(#fo81ful)" height="50" rx="12.5" ry="12.5" style="stroke: #A80036; stroke-width: 1.5;" width="50" x="594" y="250.9531"/><line style="stroke: #A80036; stroke-width: 1.5;" x1="594" x2="644" y1="277.25" y2="277.25"/><text fill="#000000" font-family="sans-serif" font-size="14" lengthAdjust="spacingAndGlyphs" textLength="9" x="614.5" y="268.9482">E</text><rect fill="#FEFECE" filter="url(#fo81ful)" height="50" rx="12.5" ry="12.5" style="stroke: #A80036; stroke-width: 1.5;" width="50" x="594" y="139.9531"/><line style="stroke: #A80036; stroke-width: 1.5;" x1="594" x2="644" y1="166.25" y2="166.25"/><text fill="#000000" font-family="sans-serif" font-size="14" lengthAdjust="spacingAndGlyphs" textLength="8" x="615" y="157.9482">F</text><rect fill="#FEFECE" filter="url(#fo81ful)" height="50" rx="12.5" ry="12.5" style="stroke: #A80036; stroke-width: 1.5;" width="50" x="391" y="28.9531"/><line style="stroke: #A80036; stroke-width: 1.5;" x1="391" x2="441" y1="55.25" y2="55.25"/><text fill="#000000" font-family="sans-serif" font-size="14" lengthAdjust="spacingAndGlyphs" textLength="11" x="410.5" y="46.9482">G</text><rect fill="#FEFECE" filter="url(#fo81ful)" height="50" rx="12.5" ry="12.5" style="stroke: #A80036; stroke-width: 1.5;" width="50" x="253" y="28.9531"/><line style="stroke: #A80036; stroke-width: 1.5;" x1="253" x2="303" y1="55.25" y2="55.25"/><text fill="#000000" font-family="sans-serif" font-size="14" lengthAdjust="spacingAndGlyphs" textLength="10" x="273" y="46.9482">H</text><rect fill="#FEFECE" filter="url(#fo81ful)" height="50" rx="12.5" ry="12.5" style="stroke: #A80036; stroke-width: 1.5;" width="50" x="6" y="250.9531"/><line style="stroke: #A80036; stroke-width: 1.5;" x1="6" x2="56" y1="277.25" y2="277.25"/><text fill="#000000" font-family="sans-serif" font-size="14" lengthAdjust="spacingAndGlyphs" textLength="3" x="29.5" y="268.9482">J</text><rect fill="#FEFECE" filter="url(#fo81ful)" height="50" rx="12.5" ry="12.5" style="stroke: #A80036; stroke-width: 1.5;" width="50" x="261" y="250.9531"/><line style="stroke: #A80036; stroke-width: 1.5;" x1="261" x2="311" y1="277.25" y2="277.25"/><text fill="#000000" font-family="sans-serif" font-size="14" lengthAdjust="spacingAndGlyphs" textLength="9" x="281.5" y="268.9482">K</text><rect fill="#FEFECE" filter="url(#fo81ful)" height="50" rx="12.5" ry="12.5" style="stroke: #A80036; stroke-width: 1.5;" width="50" x="133" y="28.9531"/><line style="stroke: #A80036; stroke-width: 1.5;" x1="133" x2="183" y1="55.25" y2="55.25"/><text fill="#000000" font-family="sans-serif" font-size="14" lengthAdjust="spacingAndGlyphs" textLength="7" x="154.5" y="46.9482">L</text><rect fill="#FEFECE" filter="url(#fo81ful)" height="50" rx="12.5" ry="12.5" style="stroke: #A80036; stroke-width: 1.5;" width="50" x="261" y="361.9531"/><line style="stroke: #A80036; stroke-width: 1.5;" x1="261" x2="311" y1="388.25" y2="388.25"/><text fill="#000000" font-family="sans-serif" font-size="14" lengthAdjust="spacingAndGlyphs" textLength="12" x="280" y="379.9482">M</text><rect fill="#FEFECE" filter="url(#fo81ful)" height="50" rx="12.5" ry="12.5" style="stroke: #A80036; stroke-width: 1.5;" width="50" x="124" y="361.9531"/><line style="stroke: #A80036; stroke-width: 1.5;" x1="124" x2="174" y1="388.25" y2="388.25"/><text fill="#000000" font-family="sans-serif" font-size="14" lengthAdjust="spacingAndGlyphs" textLength="10" x="144" y="379.9482">N</text><rect fill="#FEFECE" filter="url(#fo81ful)" height="50" rx="12.5" ry="12.5" style="stroke: #A80036; stroke-width: 1.5;" width="50" x="91" y="250.9531"/><line style="stroke: #A80036; stroke-width: 1.5;" x1="91" x2="141" y1="277.25" y2="277.25"/><text fill="#000000" font-family="sans-serif" font-size="14" lengthAdjust="spacingAndGlyphs" textLength="11" x="110.5" y="268.9482">O</text><rect fill="#FEFECE" filter="url(#fo81ful)" height="50" rx="12.5" ry="12.5" style="stroke: #A80036; stroke-width: 1.5;" width="50" x="176" y="250.9531"/><line style="stroke: #A80036; stroke-width: 1.5;" x1="176" x2="226" y1="277.25" y2="277.25"/><text fill="#000000" font-family="sans-serif" font-size="14" lengthAdjust="spacingAndGlyphs" textLength="9" x="196.5" y="268.9482">P</text><rect fill="#FEFECE" filter="url(#fo81ful)" height="50" rx="12.5" ry="12.5" style="stroke: #A80036; stroke-width: 1.5;" width="50" x="133" y="139.9531"/><line style="stroke: #A80036; stroke-width: 1.5;" x1="133" x2="183" y1="166.25" y2="166.25"/><text fill="#000000" font-family="sans-serif" font-size="14" lengthAdjust="spacingAndGlyphs" textLength="11" x="152.5" y="157.9482">Q</text><path d="M404.312,164.9531 C425.771,164.9531 447.229,164.9531 468.688,164.9531 " fill="none" style="stroke: #A80036; stroke-width: 1.0;"/><polygon fill="#A80036" points="473.849,164.9531,464.849,160.9531,468.849,164.9531,464.849,168.9531,473.849,164.9531" style="stroke: #A80036; stroke-width: 1.0;"/><path d="M398.618,139.8301 C406.668,123.4751 414.277,101.7571 418.15,84.3851 " fill="none" style="stroke: #A80036; stroke-width: 1.0;"/><polygon fill="#A80036" points="419.229,79.1441,413.4958,87.1522,418.2204,84.0413,421.3313,88.766,419.229,79.1441" style="stroke: #A80036; stroke-width: 1.0;"/><path d="M396.984,79.1441 C389.074,95.5131 381.483,117.2321 377.508,134.5931 " fill="none" style="stroke: #A80036; stroke-width: 1.0;"/><polygon fill="#A80036" points="376.394,139.8301,382.1805,131.8604,377.4352,134.9397,374.3559,130.1945,376.394,139.8301" style="stroke: #A80036; stroke-width: 1.0;"/><path d="M404.231,177.4121 C448.794,197.6511 541.231,239.6331 588.989,261.3231 " fill="none" style="stroke: #A80036; stroke-width: 1.0;"/><polygon fill="#A80036" points="593.747,263.4841,587.2077,256.1195,589.1948,261.4159,583.8985,263.403,593.747,263.4841" style="stroke: #A80036; stroke-width: 1.0;"/><path d="M524.312,177.4361 C545.861,185.2221 567.41,185.7531 588.959,179.0281 " fill="none" style="stroke: #A80036; stroke-width: 1.0;"/><polygon fill="#A80036" points="593.849,177.3781,584.0425,176.4658,589.1115,178.9768,586.6004,184.0458,593.849,177.3781" style="stroke: #A80036; stroke-width: 1.0;"/><path d="M593.849,152.5281 C572.3,144.7061 550.751,144.1391 529.202,150.8281 " fill="none" style="stroke: #A80036; stroke-width: 1.0;"/><polygon fill="#A80036" points="524.312,152.4701,534.1173,153.3949,529.0515,150.8774,531.569,145.8116,524.312,152.4701" style="stroke: #A80036; stroke-width: 1.0;"/><path d="M518.618,139.8301 C526.668,123.4751 534.277,101.7571 538.15,84.3851 " fill="none" style="stroke: #A80036; stroke-width: 1.0;"/><polygon fill="#A80036" points="539.229,79.1441,533.4958,87.1522,538.2204,84.0413,541.3313,88.766,539.229,79.1441" style="stroke: #A80036; stroke-width: 1.0;"/><path d="M516.984,79.1441 C509.074,95.5131 501.483,117.2321 497.508,134.5931 " fill="none" style="stroke: #A80036; stroke-width: 1.0;"/><polygon fill="#A80036" points="496.394,139.8301,502.1805,131.8604,497.4352,134.9397,494.3559,130.1945,496.394,139.8301" style="stroke: #A80036; stroke-width: 1.0;"/><path d="M510.742,65.3971 C472.83,81.1521 399.04,112.1171 337,139.9531 C330.109,143.0451 322.737,146.4541 315.8,149.7091 " fill="none" style="stroke: #A80036; stroke-width: 1.0;"/><polygon fill="#A80036" points="311.079,151.9311,320.9255,151.7166,315.6027,149.8014,317.5179,144.4786,311.079,151.9311" style="stroke: #A80036; stroke-width: 1.0;"/><path d="M284.23,139.8301 C283.029,123.4751 281.435,101.7571 280.16,84.3851 " fill="none" style="stroke: #A80036; stroke-width: 1.0;"/><polygon fill="#A80036" points="279.775,79.1441,276.4439,88.4126,280.1407,84.1307,284.4225,87.8275,279.775,79.1441" style="stroke: #A80036; stroke-width: 1.0;"/><path d="M286,190.1441 C286,206.5131 286,228.2321 286,245.5931 " fill="none" style="stroke: #A80036; stroke-width: 1.0;"/><polygon fill="#A80036" points="286,250.8301,290,241.8301,286,245.8301,282,241.8301,286,250.8301" style="stroke: #A80036; stroke-width: 1.0;"/><path d="M59.8419,303.5951 C79.3473,321.6129 104.8677,345.1868 123.605,362.4946 " fill="none" style="stroke: #A80036; stroke-width: 1.0;"/><polygon fill="#A80036" points="56.0248,300.0691,59.9217,309.1142,59.6976,303.4618,65.35,303.2377,56.0248,300.0691" style="stroke: #A80036; stroke-width: 1.0;"/><path d="M189.46,301.1441 C181.583,317.6546 171.11,339.6073 162.793,357.041 " fill="none" style="stroke: #A80036; stroke-width: 1.0;"/><polygon fill="#A80036" points="160.508,361.8301,167.9933,355.4294,162.6608,357.3173,160.7729,351.9848,160.508,361.8301" style="stroke: #A80036; stroke-width: 1.0;"/><path d="M167.543,190.1441 C174.057,206.6541 182.717,228.6071 189.594,246.0411 " fill="none" style="stroke: #A80036; stroke-width: 1.0;"/><polygon fill="#A80036" points="191.484,250.8301,191.9034,240.9902,189.6497,246.1787,184.4612,243.925,191.484,250.8301" style="stroke: #A80036; stroke-width: 1.0;"/><path d="M148.679,190.1441 C142.317,206.6541 133.858,228.6071 127.14,246.0411 " fill="none" style="stroke: #A80036; stroke-width: 1.0;"/><polygon fill="#A80036" points="125.295,250.8301,132.2645,243.8712,127.0934,246.1648,124.7999,240.9937,125.295,250.8301" style="stroke: #A80036; stroke-width: 1.0;"/><path d="M53.7489,247.0291 C63.7651,236.5741 76.4536,225.9871 90.5,220.4531 C146.737,198.2961 170.263,198.2961 226.5,220.4531 C242.271,226.6671 256.331,239.2501 266.818,250.8661 " fill="none" style="stroke: #A80036; stroke-width: 1.0;"/><polygon fill="#A80036" points="50.1821,250.8661,59.2403,246.9998,53.5872,247.2048,53.3822,241.5517,50.1821,250.8661" style="stroke: #A80036; stroke-width: 1.0;"/><path d="M286,301.1441 C286,317.5135 286,339.2324 286,356.593 " fill="none" style="stroke: #A80036; stroke-width: 1.0;"/><polygon fill="#A80036" points="286,361.8301,290,352.8301,286,356.8301,282,352.8301,286,361.8301" style="stroke: #A80036; stroke-width: 1.0;"/><path d="M630.43,250.8301 C632.928,234.4751 633.165,212.7571 631.141,195.3851 " fill="none" style="stroke: #A80036; stroke-width: 1.0;"/><polygon fill="#A80036" points="630.44,190.1441,627.6658,199.5942,631.1015,195.1002,635.5955,198.5358,630.44,190.1441" style="stroke: #A80036; stroke-width: 1.0;"/><path d="M608.195,190.1441 C605.842,206.5131 605.624,228.2321 607.542,245.5931 " fill="none" style="stroke: #A80036; stroke-width: 1.0;"/><polygon fill="#A80036" points="608.205,250.8301,611.0421,241.3987,607.5766,245.8698,603.1055,242.4042,608.205,250.8301" style="stroke: #A80036; stroke-width: 1.0;"/><path d="M441.3,68.5381 C478.782,88.6641 548.938,126.3331 588.972,147.8301 " fill="none" style="stroke: #A80036; stroke-width: 1.0;"/><polygon fill="#A80036" points="593.701,150.3691,587.6652,142.5865,589.2962,148.0031,583.8796,149.6342,593.701,150.3691" style="stroke: #A80036; stroke-width: 1.0;"/><path d="M441.312,53.9531 C462.771,53.9531 484.229,53.9531 505.688,53.9531 " fill="none" style="stroke: #A80036; stroke-width: 1.0;"/><polygon fill="#A80036" points="510.849,53.9531,501.849,49.9531,505.849,53.9531,501.849,57.9531,510.849,53.9531" style="stroke: #A80036; stroke-width: 1.0;"/><path d="M307.867,66.6721 C335.53,75.1981 363.192,74.6841 390.855,65.1291 " fill="none" style="stroke: #A80036; stroke-width: 1.0;"/><polygon fill="#A80036" points="303.066,65.1021,310.3745,71.704,307.8178,66.658,312.8639,64.1012,303.066,65.1021" style="stroke: #A80036; stroke-width: 1.0;"/><path d="M303.066,42.8041 C330.729,33.2321 358.391,32.7001 386.054,41.2101 " fill="none" style="stroke: #A80036; stroke-width: 1.0;"/><polygon fill="#A80036" points="390.855,42.7771,383.5423,36.1798,386.1022,41.2243,381.0578,43.7842,390.855,42.7771" style="stroke: #A80036; stroke-width: 1.0;"/><path d="M308.582,44.1531 C324.095,42.7271 338,45.9931 338,53.9531 C338,62.8121 320.773,65.8581 303.278,63.0891 " fill="none" style="stroke: #A80036; stroke-width: 1.0;"/><polygon fill="#A80036" points="303.278,44.8171,312.7046,47.6699,308.2394,44.197,311.7124,39.7317,303.278,44.8171" style="stroke: #A80036; stroke-width: 1.0;"/><path d="M188.354,53.9531 C208.3,53.9531 234.085,53.9531 252.877,53.9531 " fill="none" style="stroke: #A80036; stroke-width: 1.0;"/><polygon fill="#A80036" points="183.156,53.9531,192.156,57.9531,188.156,53.9531,192.156,49.9531,183.156,53.9531" style="stroke: #A80036; stroke-width: 1.0;"/><text fill="#000000" font-family="sans-serif" font-size="13" lengthAdjust="spacingAndGlyphs" textLength="31" x="202.5" y="47.02">1 .. *</text><polygon fill="#DDDDDD" points="269.5,429.9531,269.5,818.7813,391.5,818.7813,391.5,429.9531,269.5,429.9531" style="stroke: #000000; stroke-width: 1.0;"/><text fill="#000000" font-family="sans-serif" font-size="14" font-weight="bold" lengthAdjust="spacingAndGlyphs" textLength="105" x="275.5" y="449.9482">Relationships</text><text fill="#000000" font-family="sans-serif" font-size="14" lengthAdjust="spacingAndGlyphs" textLength="49" x="275.5" y="466.2451">A --&gt; B</text><text fill="#000000" font-family="sans-serif" font-size="14" lengthAdjust="spacingAndGlyphs" textLength="50" x="275.5" y="482.542">A --&gt; G</text><text fill="#000000" font-family="sans-serif" font-size="14" lengthAdjust="spacingAndGlyphs" textLength="48" x="275.5" y="498.8389">A --&gt; E</text><text fill="#000000" font-family="sans-serif" font-size="14" lengthAdjust="spacingAndGlyphs" textLength="48" x="275.5" y="515.1357">B --&gt; F</text><text fill="#000000" font-family="sans-serif" font-size="14" lengthAdjust="spacingAndGlyphs" textLength="50" x="275.5" y="531.4326">B --&gt; C</text><text fill="#000000" font-family="sans-serif" font-size="14" lengthAdjust="spacingAndGlyphs" text-decoration="line-through" textLength="5" x="275.5" y="547.7295">-</text><text fill="#000000" font-family="sans-serif" font-size="14" lengthAdjust="spacingAndGlyphs" textLength="10" x="280.5" y="547.7295">--</text><text fill="#000000" font-family="sans-serif" font-size="14" lengthAdjust="spacingAndGlyphs" textLength="50" x="275.5" y="564.0264">C --&gt; B</text><text fill="#000000" font-family="sans-serif" font-size="14" lengthAdjust="spacingAndGlyphs" textLength="51" x="275.5" y="580.3232">C --&gt; D</text><text fill="#000000" font-family="sans-serif" font-size="14" lengthAdjust="spacingAndGlyphs" text-decoration="line-through" textLength="5" x="275.5" y="596.6201">-</text><text fill="#000000" font-family="sans-serif" font-size="14" lengthAdjust="spacingAndGlyphs" textLength="10" x="280.5" y="596.6201">--</text><text fill="#000000" font-family="sans-serif" font-size="14" lengthAdjust="spacingAndGlyphs" textLength="51" x="275.5" y="612.917">D --&gt; H</text><text fill="#000000" font-family="sans-serif" font-size="14" lengthAdjust="spacingAndGlyphs" text-decoration="line-through" textLength="5" x="275.5" y="629.2139">-</text><text fill="#000000" font-family="sans-serif" font-size="14" lengthAdjust="spacingAndGlyphs" textLength="10" x="280.5" y="629.2139">--</text><text fill="#000000" font-family="sans-serif" font-size="14" lengthAdjust="spacingAndGlyphs" textLength="47" x="275.5" y="645.5107">E --&gt; F</text><text fill="#000000" font-family="sans-serif" font-size="14" lengthAdjust="spacingAndGlyphs" text-decoration="line-through" textLength="5" x="275.5" y="661.8076">-</text><text fill="#000000" font-family="sans-serif" font-size="14" lengthAdjust="spacingAndGlyphs" textLength="10" x="280.5" y="661.8076">--</text><text fill="#000000" font-family="sans-serif" font-size="14" lengthAdjust="spacingAndGlyphs" textLength="48" x="275.5" y="678.1045">F --&gt; B</text><text fill="#000000" font-family="sans-serif" font-size="14" lengthAdjust="spacingAndGlyphs" textLength="47" x="275.5" y="694.4014">F --&gt; E</text><text fill="#000000" font-family="sans-serif" font-size="14" lengthAdjust="spacingAndGlyphs" text-decoration="line-through" textLength="5" x="275.5" y="710.6982">-</text><text fill="#000000" font-family="sans-serif" font-size="14" lengthAdjust="spacingAndGlyphs" textLength="10" x="280.5" y="710.6982">--</text><text fill="#000000" font-family="sans-serif" font-size="14" lengthAdjust="spacingAndGlyphs" textLength="50" x="275.5" y="726.9951">G --&gt; A</text><text fill="#000000" font-family="sans-serif" font-size="14" lengthAdjust="spacingAndGlyphs" textLength="49" x="275.5" y="743.292">G --&gt; F</text><text fill="#000000" font-family="sans-serif" font-size="14" lengthAdjust="spacingAndGlyphs" textLength="51" x="275.5" y="759.5889">G --&gt; C</text><text fill="#000000" font-family="sans-serif" font-size="14" lengthAdjust="spacingAndGlyphs" textLength="51" x="275.5" y="775.8857">G --&gt; H</text><text fill="#000000" font-family="sans-serif" font-size="14" lengthAdjust="spacingAndGlyphs" text-decoration="line-through" textLength="5" x="275.5" y="792.1826">-</text><text fill="#000000" font-family="sans-serif" font-size="14" lengthAdjust="spacingAndGlyphs" textLength="10" x="280.5" y="792.1826">--</text><text fill="#000000" font-family="sans-serif" font-size="14" lengthAdjust="spacingAndGlyphs" textLength="51" x="275.5" y="808.4795">H --&gt; G</text><line style="stroke: #000000; stroke-width: 1.0;" x1="275.5" x2="385.5" y1="436.9531" y2="436.9531"/><line style="stroke: #000000; stroke-width: 1.0;" x1="275.5" x2="385.5" y1="453.25" y2="453.25"/><line style="stroke: #000000; stroke-width: 1.0;" x1="275.5" x2="385.5" y1="469.5469" y2="469.5469"/><line style="stroke: #000000; stroke-width: 1.0;" x1="275.5" x2="385.5" y1="485.8438" y2="485.8438"/><line style="stroke: #000000; stroke-width: 1.0;" x1="275.5" x2="385.5" y1="502.1406" y2="502.1406"/><line style="stroke: #000000; stroke-width: 1.0;" x1="275.5" x2="385.5" y1="518.4375" y2="518.4375"/><line style="stroke: #000000; stroke-width: 1.0;" x1="275.5" x2="385.5" y1="534.7344" y2="534.7344"/><line style="stroke: #000000; stroke-width: 1.0;" x1="275.5" x2="385.5" y1="551.0313" y2="551.0313"/><line style="stroke: #000000; stroke-width: 1.0;" x1="275.5" x2="385.5" y1="567.3281" y2="567.3281"/><line style="stroke: #000000; stroke-width: 1.0;" x1="275.5" x2="385.5" y1="583.625" y2="583.625"/><line style="stroke: #000000; stroke-width: 1.0;" x1="275.5" x2="385.5" y1="599.9219" y2="599.9219"/><line style="stroke: #000000; stroke-width: 1.0;" x1="275.5" x2="385.5" y1="616.2188" y2="616.2188"/><line style="stroke: #000000; stroke-width: 1.0;" x1="275.5" x2="385.5" y1="632.5156" y2="632.5156"/><line style="stroke: #000000; stroke-width: 1.0;" x1="275.5" x2="385.5" y1="648.8125" y2="648.8125"/><line style="stroke: #000000; stroke-width: 1.0;" x1="275.5" x2="385.5" y1="665.1094" y2="665.1094"/><line style="stroke: #000000; stroke-width: 1.0;" x1="275.5" x2="385.5" y1="681.4063" y2="681.4063"/><line style="stroke: #000000; stroke-width: 1.0;" x1="275.5" x2="385.5" y1="697.7031" y2="697.7031"/><line style="stroke: #000000; stroke-width: 1.0;" x1="275.5" x2="385.5" y1="714" y2="714"/><line style="stroke: #000000; stroke-width: 1.0;" x1="275.5" x2="385.5" y1="730.2969" y2="730.2969"/><line style="stroke: #000000; stroke-width: 1.0;" x1="275.5" x2="385.5" y1="746.5938" y2="746.5938"/><line style="stroke: #000000; stroke-width: 1.0;" x1="275.5" x2="385.5" y1="762.8906" y2="762.8906"/><line style="stroke: #000000; stroke-width: 1.0;" x1="275.5" x2="385.5" y1="779.1875" y2="779.1875"/><line style="stroke: #000000; stroke-width: 1.0;" x1="275.5" x2="385.5" y1="795.4844" y2="795.4844"/><line style="stroke: #000000; stroke-width: 1.0;" x1="275.5" x2="385.5" y1="811.7813" y2="811.7813"/><line style="stroke: #000000; stroke-width: 1.0;" x1="275.5" x2="275.5" y1="436.9531" y2="811.7813"/><line style="stroke: #000000; stroke-width: 1.0;" x1="385.5" x2="385.5" y1="436.9531" y2="811.7813"/></g></svg>