<?xml version="1.0" encoding="UTF-8" standalone="yes"?><svg xmlns="http://www.w3.org/2000/svg" xmlns:xlink="http://www.w3.org/1999/xlink" height="819px" style="width:526px;height:819px;" version="1.1" viewBox="0 0 526 819" width="526px"><defs><filter height="300%" id="flgaxdu" width="300%" x="-1" y="-1"><feGaussianBlur result="blurOut" stdDeviation="2.0"/><feColorMatrix in="blurOut" result="blurOut2" type="matrix" values="0 0 0 0 0 0 0 0 0 0 0 0 0 0 0 0 0 0 .4 0"/><feOffset dx="4.0" dy="4.0" in="blurOut2" result="blurOut3"/><feBlend in="SourceGraphic" in2="blurOut3" mode="normal"/></filter></defs><g><text fill="#000000" font-family="sans-serif" font-size="18" lengthAdjust="spacingAndGlyphs" textLength="166" x="184.5" y="16.708">Initial relationships</text><rect fill="#FEFECE" filter="url(#flgaxdu)" height="50" rx="12.5" ry="12.5" style="stroke: #A80036; stroke-width: 1.5;" width="50" x="227" y="139.9531"/><line style="stroke: #A80036; stroke-width: 1.5;" x1="227" x2="277" y1="166.25" y2="166.25"/><text fill="#000000" font-family="sans-serif" font-size="14" lengthAdjust="spacingAndGlyphs" textLength="9" x="247.5" y="157.9482">A</text><rect fill="#FEFECE" filter="url(#flgaxdu)" height="50" rx="12.5" ry="12.5" style="stroke: #A80036; stroke-width: 1.5;" width="50" x="347" y="139.9531"/><line style="stroke: #A80036; stroke-width: 1.5;" x1="347" x2="397" y1="166.25" y2="166.25"/><text fill="#000000" font-family="sans-serif" font-size="14" lengthAdjust="spacingAndGlyphs" textLength="10" x="367" y="157.9482">B</text><rect fill="#FEFECE" filter="url(#flgaxdu)" height="50" rx="12.5" ry="12.5" style="stroke: #A80036; stroke-width: 1.5;" width="50" x="384" y="28.9531"/><line style="stroke: #A80036; stroke-width: 1.5;" x1="384" x2="434" y1="55.25" y2="55.25"/><text fill="#000000" font-family="sans-serif" font-size="14" lengthAdjust="spacingAndGlyphs" textLength="10" x="404" y="46.9482">C</text><rect fill="#FEFECE" filter="url(#flgaxdu)" height="50" rx="12.5" ry="12.5" style="stroke: #A80036; stroke-width: 1.5;" width="50" x="138" y="139.9531"/><line style="stroke: #A80036; stroke-width: 1.5;" x1="138" x2="188" y1="166.25" y2="166.25"/><text fill="#000000" font-family="sans-serif" font-size="14" lengthAdjust="spacingAndGlyphs" textLength="11" x="157.5" y="157.9482">D</text><rect fill="#FEFECE" filter="url(#flgaxdu)" height="50" rx="12.5" ry="12.5" style="stroke: #A80036; stroke-width: 1.5;" width="50" x="467" y="250.9531"/><line style="stroke: #A80036; stroke-width: 1.5;" x1="467" x2="517" y1="277.25" y2="277.25"/><text fill="#000000" font-family="sans-serif" font-size="14" lengthAdjust="spacingAndGlyphs" textLength="9" x="487.5" y="268.9482">E</text><rect fill="#FEFECE" filter="url(#flgaxdu)" height="50" rx="12.5" ry="12.5" style="stroke: #A80036; stroke-width: 1.5;" width="50" x="467" y="139.9531"/><line style="stroke: #A80036; stroke-width: 1.5;" x1="467" x2="517" y1="166.25" y2="166.25"/><text fill="#000000" font-family="sans-serif" font-size="14" lengthAdjust="spacingAndGlyphs" textLength="8" x="488" y="157.9482">F</text><rect fill="#FEFECE" filter="url(#flgaxdu)" height="50" rx="12.5" ry="12.5" style="stroke: #A80036; stroke-width: 1.5;" width="50" x="264" y="28.9531"/><line style="stroke: #A80036; stroke-width: 1.5;" x1="264" x2="314" y1="55.25" y2="55.25"/><text fill="#000000" font-family="sans-serif" font-size="14" lengthAdjust="spacingAndGlyphs" textLength="11" x="283.5" y="46.9482">G</text><rect fill="#FEFECE" filter="url(#flgaxdu)" height="50" rx="12.5" ry="12.5" style="stroke: #A80036; stroke-width: 1.5;" width="50" x="126" y="28.9531"/><line style="stroke: #A80036; stroke-width: 1.5;" x1="126" x2="176" y1="55.25" y2="55.25"/><text fill="#000000" font-family="sans-serif" font-size="14" lengthAdjust="spacingAndGlyphs" textLength="10" x="146" y="46.9482">H</text><rect fill="#FEFECE" filter="url(#flgaxdu)" height="50" rx="12.5" ry="12.5" style="stroke: #A80036; stroke-width: 1.5;" width="50" x="18" y="250.9531"/><line style="stroke: #A80036; stroke-width: 1.5;" x1="18" x2="68" y1="277.25" y2="277.25"/><text fill="#000000" font-family="sans-serif" font-size="14" lengthAdjust="spacingAndGlyphs" textLength="3" x="41.5" y="268.9482">J</text><rect fill="#FEFECE" filter="url(#flgaxdu)" height="50" rx="12.5" ry="12.5" style="stroke: #A80036; stroke-width: 1.5;" width="50" x="138" y="250.9531"/><line style="stroke: #A80036; stroke-width: 1.5;" x1="138" x2="188" y1="277.25" y2="277.25"/><text fill="#000000" font-family="sans-serif" font-size="14" lengthAdjust="spacingAndGlyphs" textLength="9" x="158.5" y="268.9482">K</text><rect fill="#FEFECE" filter="url(#flgaxdu)" height="50" rx="12.5" ry="12.5" style="stroke: #A80036; stroke-width: 1.5;" width="50" x="6" y="28.9531"/><line style="stroke: #A80036; stroke-width: 1.5;" x1="6" x2="56" y1="55.25" y2="55.25"/><text fill="#000000" font-family="sans-serif" font-size="14" lengthAdjust="spacingAndGlyphs" textLength="7" x="27.5" y="46.9482">L</text><rect fill="#FEFECE" filter="url(#flgaxdu)" height="50" rx="12.5" ry="12.5" style="stroke: #A80036; stroke-width: 1.5;" width="50" x="138" y="361.9531"/><line style="stroke: #A80036; stroke-width: 1.5;" x1="138" x2="188" y1="388.25" y2="388.25"/><text fill="#000000" font-family="sans-serif" font-size="14" lengthAdjust="spacingAndGlyphs" textLength="12" x="157" y="379.9482">M</text><rect fill="#FEFECE" filter="url(#flgaxdu)" height="50" rx="12.5" ry="12.5" style="stroke: #A80036; stroke-width: 1.5;" width="50" x="18" y="361.9531"/><line style="stroke: #A80036; stroke-width: 1.5;" x1="18" x2="68" y1="388.25" y2="388.25"/><text fill="#000000" font-family="sans-serif" font-size="14" lengthAdjust="spacingAndGlyphs" textLength="10" x="38" y="379.9482">N</text><path d="M277.312,164.9531 C298.771,164.9531 320.229,164.9531 341.688,164.9531 " fill="none" style="stroke: #A80036; stroke-width: 1.0;"/><polygon fill="#A80036" points="346.849,164.9531,337.849,160.9531,341.849,164.9531,337.849,168.9531,346.849,164.9531" style="stroke: #A80036; stroke-width: 1.0;"/><path d="M271.618,139.8301 C279.668,123.4751 287.277,101.7571 291.15,84.3851 " fill="none" style="stroke: #A80036; stroke-width: 1.0;"/><polygon fill="#A80036" points="292.229,79.1441,286.4958,87.1522,291.2204,84.0413,294.3313,88.766,292.229,79.1441" style="stroke: #A80036; stroke-width: 1.0;"/><path d="M269.984,79.1441 C262.074,95.5131 254.483,117.2321 250.508,134.5931 " fill="none" style="stroke: #A80036; stroke-width: 1.0;"/><polygon fill="#A80036" points="249.394,139.8301,255.1805,131.8604,250.4352,134.9397,247.3559,130.1945,249.394,139.8301" style="stroke: #A80036; stroke-width: 1.0;"/><path d="M277.231,177.4121 C321.794,197.6511 414.231,239.6331 461.989,261.3231 " fill="none" style="stroke: #A80036; stroke-width: 1.0;"/><polygon fill="#A80036" points="466.747,263.4841,460.2077,256.1195,462.1948,261.4159,456.8985,263.403,466.747,263.4841" style="stroke: #A80036; stroke-width: 1.0;"/><path d="M397.312,177.4361 C418.861,185.2221 440.41,185.7531 461.959,179.0281 " fill="none" style="stroke: #A80036; stroke-width: 1.0;"/><polygon fill="#A80036" points="466.849,177.3781,457.0425,176.4658,462.1115,178.9768,459.6004,184.0458,466.849,177.3781" style="stroke: #A80036; stroke-width: 1.0;"/><path d="M466.849,152.5281 C445.3,144.7061 423.751,144.1391 402.202,150.8281 " fill="none" style="stroke: #A80036; stroke-width: 1.0;"/><polygon fill="#A80036" points="397.312,152.4701,407.1173,153.3949,402.0515,150.8774,404.569,145.8116,397.312,152.4701" style="stroke: #A80036; stroke-width: 1.0;"/><path d="M391.618,139.8301 C399.668,123.4751 407.277,101.7571 411.15,84.3851 " fill="none" style="stroke: #A80036; stroke-width: 1.0;"/><polygon fill="#A80036" points="412.229,79.1441,406.4958,87.1522,411.2204,84.0413,414.3313,88.766,412.229,79.1441" style="stroke: #A80036; stroke-width: 1.0;"/><path d="M389.984,79.1441 C382.074,95.5131 374.483,117.2321 370.508,134.5931 " fill="none" style="stroke: #A80036; stroke-width: 1.0;"/><polygon fill="#A80036" points="369.394,139.8301,375.1805,131.8604,370.4352,134.9397,367.3559,130.1945,369.394,139.8301" style="stroke: #A80036; stroke-width: 1.0;"/><path d="M383.939,65.0131 C345.971,80.3981 271.753,111.0391 210,139.9531 C204.425,142.5631 198.539,145.4571 192.889,148.3041 " fill="none" style="stroke: #A80036; stroke-width: 1.0;"/><polygon fill="#A80036" points="188.211,150.6791,198.0468,150.1728,192.6696,148.4162,194.4262,143.039,188.211,150.6791" style="stroke: #A80036; stroke-width: 1.0;"/><path d="M160.344,139.8301 C158.544,123.4751 156.153,101.7571 154.24,84.3851 " fill="none" style="stroke: #A80036; stroke-width: 1.0;"/><polygon fill="#A80036" points="153.663,79.1441,150.6719,88.5278,154.2101,84.1141,158.6238,87.6524,153.663,79.1441" style="stroke: #A80036; stroke-width: 1.0;"/><path d="M163,190.1441 C163,206.5131 163,228.2321 163,245.5931 " fill="none" style="stroke: #A80036; stroke-width: 1.0;"/><polygon fill="#A80036" points="163,250.8301,167,241.8301,163,245.8301,159,241.8301,163,250.8301" style="stroke: #A80036; stroke-width: 1.0;"/><path d="M43,306.3851 C43,323.7576 43,345.4751 43,361.8301 " fill="none" style="stroke: #A80036; stroke-width: 1.0;"/><polygon fill="#A80036" points="43,301.1441,39,310.1441,43,306.1441,47,310.1441,43,301.1441" style="stroke: #A80036; stroke-width: 1.0;"/><path d="M73.4734,275.9531 C94.9318,275.9531 116.39,275.9531 137.849,275.9531 " fill="none" style="stroke: #A80036; stroke-width: 1.0;"/><polygon fill="#A80036" points="68.3125,275.9531,77.3125,279.9531,73.3125,275.9531,77.3125,271.9531,68.3125,275.9531" style="stroke: #A80036; stroke-width: 1.0;"/><path d="M163,301.1441 C163,317.5135 163,339.2324 163,356.593 " fill="none" style="stroke: #A80036; stroke-width: 1.0;"/><polygon fill="#A80036" points="163,361.8301,167,352.8301,163,356.8301,159,352.8301,163,361.8301" style="stroke: #A80036; stroke-width: 1.0;"/><path d="M503.43,250.8301 C505.928,234.4751 506.165,212.7571 504.141,195.3851 " fill="none" style="stroke: #A80036; stroke-width: 1.0;"/><polygon fill="#A80036" points="503.44,190.1441,500.6658,199.5942,504.1015,195.1002,508.5955,198.5358,503.44,190.1441" style="stroke: #A80036; stroke-width: 1.0;"/><path d="M481.195,190.1441 C478.842,206.5131 478.624,228.2321 480.542,245.5931 " fill="none" style="stroke: #A80036; stroke-width: 1.0;"/><polygon fill="#A80036" points="481.205,250.8301,484.0421,241.3987,480.5766,245.8698,476.1055,242.4042,481.205,250.8301" style="stroke: #A80036; stroke-width: 1.0;"/><path d="M314.3,68.5381 C351.782,88.6641 421.938,126.3331 461.972,147.8301 " fill="none" style="stroke: #A80036; stroke-width: 1.0;"/><polygon fill="#A80036" points="466.701,150.3691,460.6652,142.5865,462.2962,148.0031,456.8796,149.6342,466.701,150.3691" style="stroke: #A80036; stroke-width: 1.0;"/><path d="M314.312,53.9531 C335.771,53.9531 357.229,53.9531 378.688,53.9531 " fill="none" style="stroke: #A80036; stroke-width: 1.0;"/><polygon fill="#A80036" points="383.849,53.9531,374.849,49.9531,378.849,53.9531,374.849,57.9531,383.849,53.9531" style="stroke: #A80036; stroke-width: 1.0;"/><path d="M180.867,66.6721 C208.53,75.1981 236.192,74.6841 263.855,65.1291 " fill="none" style="stroke: #A80036; stroke-width: 1.0;"/><polygon fill="#A80036" points="176.066,65.1021,183.3745,71.704,180.8178,66.658,185.8639,64.1012,176.066,65.1021" style="stroke: #A80036; stroke-width: 1.0;"/><path d="M176.066,42.8041 C203.729,33.2321 231.391,32.7001 259.054,41.2101 " fill="none" style="stroke: #A80036; stroke-width: 1.0;"/><polygon fill="#A80036" points="263.855,42.7771,256.5423,36.1798,259.1022,41.2243,254.0578,43.7842,263.855,42.7771" style="stroke: #A80036; stroke-width: 1.0;"/><path d="M181.582,44.1531 C197.095,42.7271 211,45.9931 211,53.9531 C211,62.8121 193.773,65.8581 176.278,63.0891 " fill="none" style="stroke: #A80036; stroke-width: 1.0;"/><polygon fill="#A80036" points="176.278,44.8171,185.7046,47.6699,181.2394,44.197,184.7124,39.7317,176.278,44.8171" style="stroke: #A80036; stroke-width: 1.0;"/><path d="M61.3542,53.9531 C81.3005,53.9531 107.085,53.9531 125.877,53.9531 " fill="none" style="stroke: #A80036; stroke-width: 1.0;"/><polygon fill="#A80036" points="56.1559,53.9531,65.1559,57.9531,61.1559,53.9531,65.1559,49.9531,56.1559,53.9531" style="stroke: #A80036; stroke-width: 1.0;"/><text fill="#000000" font-family="sans-serif" font-size="13" lengthAdjust="spacingAndGlyphs" textLength="31" x="75.5" y="47.02">1 .. *</text><polygon fill="#DDDDDD" points="206,429.9531,206,818.7813,328,818.7813,328,429.9531,206,429.9531" style="stroke: #000000; stroke-width: 1.0;"/><text fill="#000000" font-family="sans-serif" font-size="14" font-weight="bold" lengthAdjust="spacingAndGlyphs" textLength="105" x="212" y="449.9482">Relationships</text><text fill="#000000" font-family="sans-serif" font-size="14" lengthAdjust="spacingAndGlyphs" textLength="49" x="212" y="466.2451">A --&gt; B</text><text fill="#000000" font-family="sans-serif" font-size="14" lengthAdjust="spacingAndGlyphs" textLength="50" x="212" y="482.542">A --&gt; G</text><text fill="#000000" font-family="sans-serif" font-size="14" lengthAdjust="spacingAndGlyphs" textLength="48" x="212" y="498.8389">A --&gt; E</text><text fill="#000000" font-family="sans-serif" font-size="14" lengthAdjust="spacingAndGlyphs" textLength="48" x="212" y="515.1357">B --&gt; F</text><text fill="#000000" font-family="sans-serif" font-size="14" lengthAdjust="spacingAndGlyphs" textLength="50" x="212" y="531.4326">B --&gt; C</text><text fill="#000000" font-family="sans-serif" font-size="14" lengthAdjust="spacingAndGlyphs" text-decoration="line-through" textLength="5" x="212" y="547.7295">-</text><text fill="#000000" font-family="sans-serif" font-size="14" lengthAdjust="spacingAndGlyphs" textLength="10" x="217" y="547.7295">--</text><text fill="#000000" font-family="sans-serif" font-size="14" lengthAdjust="spacingAndGlyphs" textLength="50" x="212" y="564.0264">C --&gt; B</text><text fill="#000000" font-family="sans-serif" font-size="14" lengthAdjust="spacingAndGlyphs" textLength="51" x="212" y="580.3232">C --&gt; D</text><text fill="#000000" font-family="sans-serif" font-size="14" lengthAdjust="spacingAndGlyphs" text-decoration="line-through" textLength="5" x="212" y="596.6201">-</text><text fill="#000000" font-family="sans-serif" font-size="14" lengthAdjust="spacingAndGlyphs" textLength="10" x="217" y="596.6201">--</text><text fill="#000000" font-family="sans-serif" font-size="14" lengthAdjust="spacingAndGlyphs" textLength="51" x="212" y="612.917">D --&gt; H</text><text fill="#000000" font-family="sans-serif" font-size="14" lengthAdjust="spacingAndGlyphs" text-decoration="line-through" textLength="5" x="212" y="629.2139">-</text><text fill="#000000" font-family="sans-serif" font-size="14" lengthAdjust="spacingAndGlyphs" textLength="10" x="217" y="629.2139">--</text><text fill="#000000" font-family="sans-serif" font-size="14" lengthAdjust="spacingAndGlyphs" textLength="47" x="212" y="645.5107">E --&gt; F</text><text fill="#000000" font-family="sans-serif" font-size="14" lengthAdjust="spacingAndGlyphs" text-decoration="line-through" textLength="5" x="212" y="661.8076">-</text><text fill="#000000" font-family="sans-serif" font-size="14" lengthAdjust="spacingAndGlyphs" textLength="10" x="217" y="661.8076">--</text><text fill="#000000" font-family="sans-serif" font-size="14" lengthAdjust="spacingAndGlyphs" textLength="48" x="212" y="678.1045">F --&gt; B</text><text fill="#000000" font-family="sans-serif" font-size="14" lengthAdjust="spacingAndGlyphs" textLength="47" x="212" y="694.4014">F --&gt; E</text><text fill="#000000" font-family="sans-serif" font-size="14" lengthAdjust="spacingAndGlyphs" text-decoration="line-through" textLength="5" x="212" y="710.6982">-</text><text fill="#000000" font-family="sans-serif" font-size="14" lengthAdjust="spacingAndGlyphs" textLength="10" x="217" y="710.6982">--</text><text fill="#000000" font-family="sans-serif" font-size="14" lengthAdjust="spacingAndGlyphs" textLength="50" x="212" y="726.9951">G --&gt; A</text><text fill="#000000" font-family="sans-serif" font-size="14" lengthAdjust="spacingAndGlyphs" textLength="49" x="212" y="743.292">G --&gt; F</text><text fill="#000000" font-family="sans-serif" font-size="14" lengthAdjust="spacingAndGlyphs" textLength="51" x="212" y="759.5889">G --&gt; C</text><text fill="#000000" font-family="sans-serif" font-size="14" lengthAdjust="spacingAndGlyphs" textLength="51" x="212" y="775.8857">G --&gt; H</text><text fill="#000000" font-family="sans-serif" font-size="14" lengthAdjust="spacingAndGlyphs" text-decoration="line-through" textLength="5" x="212" y="792.1826">-</text><text fill="#000000" font-family="sans-serif" font-size="14" lengthAdjust="spacingAndGlyphs" textLength="10" x="217" y="792.1826">--</text><text fill="#000000" font-family="sans-serif" font-size="14" lengthAdjust="spacingAndGlyphs" textLength="51" x="212" y="808.4795">H --&gt; G</text><line style="stroke: #000000; stroke-width: 1.0;" x1="212" x2="322" y1="436.9531" y2="436.9531"/><line style="stroke: #000000; stroke-width: 1.0;" x1="212" x2="322" y1="453.25" y2="453.25"/><line style="stroke: #000000; stroke-width: 1.0;" x1="212" x2="322" y1="469.5469" y2="469.5469"/><line style="stroke: #000000; stroke-width: 1.0;" x1="212" x2="322" y1="485.8438" y2="485.8438"/><line style="stroke: #000000; stroke-width: 1.0;" x1="212" x2="322" y1="502.1406" y2="502.1406"/><line style="stroke: #000000; stroke-width: 1.0;" x1="212" x2="322" y1="518.4375" y2="518.4375"/><line style="stroke: #000000; stroke-width: 1.0;" x1="212" x2="322" y1="534.7344" y2="534.7344"/><line style="stroke: #000000; stroke-width: 1.0;" x1="212" x2="322" y1="551.0313" y2="551.0313"/><line style="stroke: #000000; stroke-width: 1.0;" x1="212" x2="322" y1="567.3281" y2="567.3281"/><line style="stroke: #000000; stroke-width: 1.0;" x1="212" x2="322" y1="583.625" y2="583.625"/><line style="stroke: #000000; stroke-width: 1.0;" x1="212" x2="322" y1="599.9219" y2="599.9219"/><line style="stroke: #000000; stroke-width: 1.0;" x1="212" x2="322" y1="616.2188" y2="616.2188"/><line style="stroke: #000000; stroke-width: 1.0;" x1="212" x2="322" y1="632.5156" y2="632.5156"/><line style="stroke: #000000; stroke-width: 1.0;" x1="212" x2="322" y1="648.8125" y2="648.8125"/><line style="stroke: #000000; stroke-width: 1.0;" x1="212" x2="322" y1="665.1094" y2="665.1094"/><line style="stroke: #000000; stroke-width: 1.0;" x1="212" x2="322" y1="681.4063" y2="681.4063"/><line style="stroke: #000000; stroke-width: 1.0;" x1="212" x2="322" y1="697.7031" y2="697.7031"/><line style="stroke: #000000; stroke-width: 1.0;" x1="212" x2="322" y1="714" y2="714"/><line style="stroke: #000000; stroke-width: 1.0;" x1="212" x2="322" y1="730.2969" y2="730.2969"/><line style="stroke: #000000; stroke-width: 1.0;" x1="212" x2="322" y1="746.5938" y2="746.5938"/><line style="stroke: #000000; stroke-width: 1.0;" x1="212" x2="322" y1="762.8906" y2="762.8906"/><line style="stroke: #000000; stroke-width: 1.0;" x1="212" x2="322" y1="779.1875" y2="779.1875"/><line style="stroke: #000000; stroke-width: 1.0;" x1="212" x2="322" y1="795.4844" y2="795.4844"/><line style="stroke: #000000; stroke-width: 1.0;" x1="212" x2="322" y1="811.7813" y2="811.7813"/><line style="stroke: #000000; stroke-width: 1.0;" x1="212" x2="212" y1="436.9531" y2="811.7813"/><line style="stroke: #000000; stroke-width: 1.0;" x1="322" x2="322" y1="436.9531" y2="811.7813"/></g></svg>